<!-- Generated by IcoMoon.io -->
<svg version="1.1" xmlns="http://www.w3.org/2000/svg" width="20" height="20" viewBox="0 0 20 20">
<title>bubble-lines</title>
<path d="M16.4 19.5c-0.1 0-0.2 0-0.3-0.1l-3.3-2.8h-12.3c-0.3-0.1-0.5-0.3-0.5-0.6v-12c0-0.3 0.2-0.5 0.5-0.5h19c0.3 0 0.5 0.2 0.5 0.5v12c0 0.3-0.2 0.5-0.5 0.5h-2.6v2.5c0 0.2-0.1 0.4-0.3 0.5-0.1 0-0.2 0-0.2 0zM1 15.5h11.9c0.1 0 0.2 0 0.3 0.1l2.6 2.3v-1.9c0-0.3 0.2-0.5 0.5-0.5h2.7v-11h-18v11z"></path>
<path d="M13.8 10.5h-9.8c-0.3 0-0.5-0.2-0.5-0.5s0.2-0.5 0.5-0.5h9.8c0.3 0 0.5 0.2 0.5 0.5s-0.2 0.5-0.5 0.5z"></path>
<path d="M10.3 7.6h-6.3c-0.3 0-0.5-0.2-0.5-0.5s0.2-0.5 0.5-0.5h6.3c0.3 0 0.5 0.2 0.5 0.5s-0.2 0.5-0.5 0.5z"></path>
<path d="M10.3 13.5h-6.3c-0.3 0-0.5-0.2-0.5-0.5s0.2-0.5 0.5-0.5h6.3c0.3 0 0.5 0.2 0.5 0.5s-0.2 0.5-0.5 0.5z"></path>
</svg>
