<!-- Generated by IcoMoon.io -->
<svg version="1.1" xmlns="http://www.w3.org/2000/svg" width="21" height="20" viewBox="0 0 21 20">
<title>menu</title>
<path d="M15.5 6h-15c-0.276 0-0.5-0.224-0.5-0.5s0.224-0.5 0.5-0.5h15c0.276 0 0.5 0.224 0.5 0.5s-0.224 0.5-0.5 0.5z"></path>
<path d="M19.38 11.251h-18.759c-0.345 0-0.625-0.28-0.625-0.625s0.28-0.625 0.625-0.625h18.759c0.345 0 0.625 0.28 0.625 0.625s-0.28 0.625-0.625 0.625z"></path>
<path d="M15.5 16h-15c-0.276 0-0.5-0.224-0.5-0.5s0.224-0.5 0.5-0.5h15c0.276 0 0.5 0.224 0.5 0.5s-0.224 0.5-0.5 0.5z"></path>
</svg>
